# xmcd CD database file
#
# Track frame offsets:
#	183
#	14043
#	28548
#	40830
#	53165
#	62750
#	72425
#	88708
#	99833
#	111365
#	123943
#	140495
#	152675
#	163445
#	174080
#	185160
#
# Disc length: 2660 seconds
#
# Revision: 6
# Processed by: cddbd v1.5.2PL0 Copyright (c) Steve Scherf et al.
# Submitted via: CDex 1.70beta2
#
DISCID=dd0a6210
DTITLE=Various Artist - The No. 1 Hits - 1965
DYEAR=1965
DGENRE=Oldies
TTITLE0=The McCoys - Hang On Sloopy
TTITLE1=Sonny and Cher - I Got You Babe
TTITLE2=The Four Tops - I Can't Help Myself
TTITLE3=The Temptations - My Girl
TTITLE4=Wayne Fontana and The Mindbenders - Game Of Love
TTITLE5=Gary Lewis and The Playboys - Thia Diamond Ring
TTITLE6=Barry McGuire - Eve Of Destruction
TTITLE7=Roger Miller - King Of The Road
TTITLE8=Chris Andrews - Yesterday Man
TTITLE9=Jackie Trent - Where Are You Now (My Love)
TTITLE10=The Rigteous Brothers - You've Lost That Lovin' Feeling
TTITLE11=The Seekers - I'll Never Find Another You
TTITLE12=Sam The Sham and The Pharaos - Wooly Bully
TTITLE13=The Byrds - Mr. Tambourine Man
TTITLE14=The Hollies - I'm Alive
TTITLE15=Moody Blues - Go Now
EXTD=YEAR: 1965
EXTT0=
EXTT1=
EXTT2=
EXTT3=
EXTT4=
EXTT5=
EXTT6=
EXTT7=
EXTT8=
EXTT9=
EXTT10=
EXTT11=
EXTT12=
EXTT13=
EXTT14=
EXTT15=
PLAYORDER=
